<?xml version="1.0" encoding="UTF-8"?>
<!DOCTYPE svg PUBLIC "-//W3C//DTD SVG 1.1//EN" "http://www.w3.org/Graphics/SVG/1.1/DTD/svg11.dtd">
<!-- Creator: CorelDRAW 2017 -->
<svg xmlns="http://www.w3.org/2000/svg" xml:space="preserve" width="339px" height="100px" version="1.1" style="shape-rendering:geometricPrecision; text-rendering:geometricPrecision; image-rendering:optimizeQuality; fill-rule:evenodd; clip-rule:evenodd"
viewBox="0 0 339 99.84"
 xmlns:xlink="http://www.w3.org/1999/xlink"
 xmlns:serif="http://www.serif.com/">
 <defs>
  <style type="text/css">
   <![CDATA[
    .fil0 {fill:#0C6634;fill-rule:nonzero}
   ]]>
  </style>
 </defs>
 <g id="Warstwa_x0020_1">
  <metadata id="CorelCorpID_0Corel-Layer"/>
  <path class="fil0" d="M48.18 62.36l0 -3.56c-1.02,0.09 -1.95,0.17 -2.88,0.43 0.76,1.27 1.78,2.28 2.88,3.13l0 0zm146.32 18.9c0,0.26 -0.03,0.42 -0.1,0.49 -0.06,0.07 -0.23,0.11 -0.5,0.11l-1.51 0c-0.25,0 -0.38,-0.2 -0.38,-0.6l0 -1.3c0,-0.26 0.03,-0.42 0.09,-0.49 0.07,-0.07 0.23,-0.1 0.5,-0.1l1.51 0c0.26,0 0.39,0.19 0.39,0.59l0 1.3zm-5.26 -1.01c0,0.64 -0.13,1.07 -0.39,1.29 -0.25,0.21 -0.71,0.32 -1.38,0.32l-5.26 0c-0.66,0 -1.12,-0.11 -1.38,-0.32 -0.26,-0.2 -0.38,-0.64 -0.38,-1.29l0 -3.59c0,-0.65 0.12,-1.08 0.38,-1.29 0.26,-0.21 0.72,-0.31 1.38,-0.31l5.26 0c0.67,0 1.13,0.1 1.38,0.31 0.26,0.21 0.39,0.64 0.39,1.29l0 3.59zm-1.66 0.31l0 -4.25 -5.48 0 0 4.25 5.48 0zm-9.9 0.7c0,0.26 -0.03,0.42 -0.1,0.49 -0.06,0.07 -0.23,0.11 -0.5,0.11l-1.51 0c-0.25,0 -0.38,-0.2 -0.38,-0.6l0 -1.3c0,-0.26 0.03,-0.42 0.09,-0.49 0.07,-0.07 0.23,-0.1 0.5,-0.1l1.51 0c0.26,0 0.39,0.19 0.39,0.59l0 1.3zm-5.26 -1.01c0,0.64 -0.13,1.07 -0.38,1.29 -0.26,0.21 -0.72,0.32 -1.39,0.32l-5.25 0c-0.67,0 -1.13,-0.11 -1.39,-0.32 -0.25,-0.2 -0.38,-0.64 -0.38,-1.29l0 -3.59c0,-0.65 0.13,-1.08 0.38,-1.29 0.26,-0.21 0.72,-0.31 1.39,-0.31l5.25 0c0.67,0 1.13,0.1 1.39,0.31 0.25,0.21 0.38,0.64 0.38,1.29l0 3.59zm-1.65 0.31l0 -4.25 -5.49 0 0 4.25 5.49 0zm-15.83 1.3l-7.67 0 0 -0.74 4.99 -4.84 -4.49 0 0 -1.22 7.17 0 0 0.67 -5.08 4.87 5.08 0 0 1.26 0 0zm-16.43 -0.6c0,0.26 -0.03,0.42 -0.09,0.49 -0.07,0.07 -0.24,0.11 -0.5,0.11l-1.51 0c-0.26,0 -0.39,-0.2 -0.39,-0.6l0 -1.3c0,-0.26 0.03,-0.42 0.1,-0.49 0.06,-0.07 0.23,-0.1 0.49,-0.1l1.52 0c0.25,0 0.38,0.19 0.38,0.59l0 1.3zm-4.77 -3.37c0,0.88 -0.53,1.32 -1.6,1.32l-4.48 0 0 2.65 -1.64 0 0 -6.8 6.12 0c0.53,0 0.92,0.08 1.16,0.25 0.29,0.21 0.44,0.56 0.44,1.06l0 1.52 0 0zm-1.55 -0.41l0 -0.7c0,-0.37 -0.25,-0.55 -0.75,-0.55l-3.78 0 0 1.8 3.78 0c0.5,0 0.75,-0.18 0.75,-0.55zm-9.03 2.77c0,0.64 -0.13,1.07 -0.39,1.29 -0.26,0.21 -0.72,0.32 -1.38,0.32l-4.42 0c-0.73,0 -1.21,-0.12 -1.44,-0.36 -0.23,-0.24 -0.35,-0.72 -0.35,-1.44l1.48 -0.28 0 0.81 5 0 0 -1.56 -4.4 0c-0.67,0 -1.12,-0.1 -1.37,-0.31 -0.28,-0.22 -0.42,-0.66 -0.42,-1.3l0 -0.76c0,-0.64 0.14,-1.07 0.42,-1.3 0.25,-0.2 0.7,-0.3 1.37,-0.3l4.03 0c0.69,0 1.16,0.1 1.41,0.32 0.25,0.21 0.38,0.65 0.38,1.32l-1.43 0.3 0 -0.72 -4.68 0 0 1.43 4.42 0c0.66,0 1.12,0.1 1.38,0.31 0.26,0.21 0.39,0.64 0.39,1.3l0 0.93 0 0zm215.55 -14.87l-5.23 0 0 -9.03 -16.33 0 0 9.03 -5.28 0 0 -21.45 5.28 0 0 8.16 16.33 0 0 -8.16 5.23 0 0 21.45zm-35.41 -5.07c0,2.03 -0.42,3.38 -1.24,4.06 -0.83,0.68 -2.3,1.01 -4.39,1.01l-13.4 0c-2.09,0 -3.55,-0.33 -4.36,-1.01 -0.81,-0.68 -1.22,-2.03 -1.22,-4.06l0 -11.31c0,-2.03 0.41,-3.38 1.22,-4.06 0.81,-0.68 2.27,-1.01 4.36,-1.01l13.4 0c2.67,0 4.33,0.55 4.97,1.67 0.44,0.74 0.66,2.57 0.66,5.48l-5.28 0.76 0 -3.96 -14.1 0 0 13.4 14.1 0 0 -4.57 5.28 1.07 0 2.53 0 0zm-31.66 5.07l-23.29 0 0 -21.45 23.04 0 0 3.8 -17.76 0 0 4.67 10.35 0 0 3.7 -10.35 0 0 5.28 18.01 0 0 4 0 0zm-27.65 -21.51l-12.07 0 0 21.51 -6.09 0 0 -21.51 -12.02 0 0 -4.66 30.18 0 0 4.66zm-32.06 21.51l-22.12 0 0 -21.45 5.28 0 0 17.45 16.84 0 0 4 0 0zm-31.15 -5.07c0,2.03 -0.41,3.38 -1.22,4.06 -0.81,0.68 -2.26,1.01 -4.36,1.01l-16.59 0c-2.1,0 -3.55,-0.32 -4.36,-0.98 -0.82,-0.66 -1.22,-2.03 -1.22,-4.09l0 -11.31c0,-2.06 0.4,-3.43 1.22,-4.09 0.81,-0.66 2.26,-0.98 4.36,-0.98l16.59 0c2.1,0 3.55,0.32 4.36,0.98 0.81,0.66 1.22,2.03 1.22,4.09l0 11.31zm-5.23 0.97l0 -13.4 -17.3 0 0 13.4 17.3 0 0 0zm-127.37 -4.59l0 -5.58 -5.59 0c0.17,2.2 0.77,4.31 1.61,6.17 1.27,-0.25 2.62,-0.51 3.98,-0.59zm0 -19.29c-1.1,0.85 -2.12,2.03 -2.96,3.47 0.93,0.17 1.94,0.34 2.96,0.42l0 -3.89zm1.27 -29.44l-11 11c7.11,-2.54 14.97,-2.54 22.08,0.08l-11.08 -11.08 0 0zm1.1 29.44l0 3.89c1.1,-0.08 2.11,-0.25 3.13,-0.51 -0.93,-1.35 -2.03,-2.53 -3.13,-3.38zm-4.23 -15.06l0 7.36c-3.98,0.59 -7.62,2.37 -10.58,4.99 1.69,2.54 4.32,4.4 7.11,5.5 1.52,-2.11 3.38,-3.81 5.33,-4.91 -2.29,0.17 -4.32,0.85 -6.18,1.87 -1.01,-0.51 -2.03,-1.27 -2.87,-2.12 2.53,-1.78 5.92,-2.96 9.05,-3.13l0 -12.1c-5.25,0.26 -10.41,1.86 -14.81,4.66l-2.11 -2.12 18.19 -18.19 18.19 18.19 -2.12 2.12c-4.4,-2.8 -9.73,-4.49 -14.97,-4.66l0 12.1 0.08 0c3.22,0.25 6.35,1.35 8.97,3.22 -0.85,0.76 -1.78,1.43 -2.79,2.03l-0.09 0c-1.77,-1.02 -3.89,-1.7 -6.09,-1.87 1.95,1.1 3.89,2.8 5.42,4.83 2.79,-1.1 5.33,-2.88 6.85,-5.42 -2.79,-2.54 -6.35,-4.31 -10.32,-4.9l0 -7.45c4.9,0.59 9.47,2.37 13.28,5.16l5.16 -5.16 -21.57 -21.57 -21.58 21.57 5.16 5.16c3.81,-2.79 8.38,-4.65 13.29,-5.16l0 0zm-3.73 26.48l5.59 0 0 -5.41c-1.36,-0.09 -2.71,-0.34 -3.98,-0.68 -0.84,1.86 -1.44,3.89 -1.61,6.09zm9.99 28.94l0 -7.62c3.89,-0.68 7.44,-2.37 10.23,-4.91 -0.93,-1.52 -2.37,-2.87 -4.14,-3.89 -0.76,-0.51 -1.69,-1.01 -2.62,-1.35 -1.44,1.86 -3.3,3.38 -5.5,4.57l0 0.08c2.2,-0.17 4.14,-0.84 6,-1.86 1.1,0.59 2.03,1.27 2.96,2.12 -2.62,1.77 -5.75,2.79 -8.88,3.04l-0.08 0 0 12.35c5.33,-0.25 10.49,-1.77 14.97,-4.65l2.03 2.03 -18.1 18.11 -18.11 -18.11 2.03 -2.03c4.4,2.79 9.56,4.4 14.81,4.65l0 -12.35 -0.09 0c-3.21,-0.25 -6.26,-1.27 -8.88,-3.04 0.93,-0.85 1.86,-1.53 2.96,-2.03 1.78,0.93 3.81,1.6 6.01,1.77l0 -0.08c-2.12,-1.19 -3.89,-2.79 -5.25,-4.66 -0.51,0.17 -0.93,0.34 -1.44,0.6 -0.5,0.25 -1.01,0.5 -1.52,0.84 -1.69,1.1 -3.13,2.46 -4.06,3.98 2.88,2.54 6.43,4.23 10.41,4.82l0 7.62c-4.91,-0.51 -9.48,-2.37 -13.29,-5.17l-4.99 5.08 21.41 21.41 21.4 -21.41 -4.99 -5.08c-3.81,2.8 -8.38,4.66 -13.28,5.17l0 0zm24.45 -49.41l-5.16 5.24c2.79,3.81 4.65,8.29 5.16,13.29l-7.45 0c-0.67,-4.15 -2.45,-7.79 -5.16,-10.75 -1.01,1.52 -2.45,2.88 -4.06,4.06 -0.93,0.59 -1.95,1.19 -3.05,1.69 1.19,2.03 2.03,4.49 2.29,6.94l4.4 0c-0.17,-2.54 -1.02,-4.91 -2.37,-6.94 1.01,-0.67 1.86,-1.35 2.62,-2.11 1.44,2.11 2.46,4.48 2.88,7.11 0.17,0.59 0.17,1.26 0.25,1.86l0 0.08c4.06,0 8.12,-0.08 12.19,-0.08 -0.17,-5.16 -1.87,-10.49 -4.66,-14.89l2.12 -2.12 18.27 18.19 -18.27 18.19 -2.12 -2.11c2.88,-4.49 4.4,-9.48 4.66,-14.81l0 -0.08 -12.19 0c-0.25,3.3 -1.35,6.51 -3.21,9.22 -0.85,-0.76 -1.7,-1.44 -2.63,-2.12 1.36,-2.03 2.29,-4.48 2.46,-7.1l-4.4 0c-0.26,2.53 -1.02,4.9 -2.37,7.1 2.79,1.19 5.33,3.05 7.11,5.59 2.7,-2.88 4.57,-6.6 5.24,-10.75l7.45 0c-0.51,4.91 -2.37,9.48 -5.16,13.28l5.16 5.17 21.57 -21.58 -21.57 -21.57 0 0zm-38.58 52.62l11 11 11.16 -11.17c-7.1,2.62 -15.06,2.71 -22.16,0.17zm-20.14 -41.88l-10.91 10.83 10.91 10.91c-2.45,-7.02 -2.45,-14.72 0,-21.74zm73.18 10.83l-11.25 -11.17c2.63,7.19 2.63,15.23 0,22.42l11.25 -11.25zm-37.9 9.31c-1.01,-0.17 -2.03,-0.34 -3.04,-0.43l0 3.56c1.18,-0.85 2.2,-1.86 3.04,-3.13l0 0zm2.88 -8.12l-5.92 0 0 5.58c1.43,0.08 2.87,0.34 4.14,0.68 1.02,-1.87 1.61,-4.07 1.78,-6.26zm-27.33 1.94c0.59,4.15 2.54,7.87 5.25,10.83 1.44,-2.03 3.38,-3.81 5.83,-5.08 0.51,-0.25 1.02,-0.5 1.61,-0.67 -1.27,-2.2 -1.94,-4.57 -2.2,-7.02l-4.99 0c0.25,2.7 1.1,5.07 2.54,7.19 -0.93,0.59 -1.78,1.27 -2.62,2.03 -1.86,-2.71 -3.05,-5.93 -3.3,-9.22l-12.19 0 0 0.08c0.34,5.33 1.78,10.32 4.66,14.81l-2.03 2.03 -18.11 -18.11 18.11 -18.1 2.03 2.03c-2.79,4.4 -4.4,9.64 -4.66,14.89 4.15,0 8.21,0.08 12.19,0.08l0 -0.08c0.08,-0.6 0.17,-1.19 0.25,-1.7l0 -0.16c0.42,-2.63 1.44,-5.08 2.88,-7.11 0.84,0.76 1.69,1.44 2.62,2.03 -1.35,2.03 -2.2,4.4 -2.37,7.02l4.99 0c0.17,-2.45 1.02,-4.74 2.12,-6.85 -1.19,-0.51 -2.37,-1.1 -3.39,-1.86 -1.69,-1.1 -3.04,-2.46 -4.06,-3.98 -2.71,2.88 -4.57,6.6 -5.16,10.74l-7.53 0c0.51,-4.99 2.37,-9.47 5.16,-13.28l-5.07 -5.07 -21.41 21.4 21.41 21.49 5.07 -5.08c-2.79,-3.8 -4.57,-8.37 -5.16,-13.28l7.53 0 0 0zm25.64 -10.32c-1.36,0.34 -2.8,0.59 -4.23,0.68l0 5.41 5.92 0c-0.17,-2.2 -0.76,-4.31 -1.69,-6.09zm88.91 17.53c0,3.42 -2.57,5.12 -7.71,5.12l-20.8 0 0 -26.17 22.43 0c3.92,0 5.88,1.69 5.88,5.07l0 3.2c0,2.57 -1.5,4.04 -4.52,4.41 3.15,0.41 4.72,2.08 4.72,5.02l0 3.35zm-5.83 -12.43l0 -2.48c0,-1.26 -0.93,-1.88 -2.79,-1.88l-13.9 0 0 6.24 13.9 0c1.86,0 2.79,-0.63 2.79,-1.88zm0.15 10.5l0 -1.98c0,-0.98 -0.23,-1.61 -0.68,-1.9 -0.46,-0.29 -1.21,-0.43 -2.26,-0.43l-13.9 0 0 6.65 13.9 0c1.05,0 1.8,-0.15 2.26,-0.44 0.45,-0.28 0.68,-0.92 0.68,-1.9l0 0zm-53.62 -12.13l3.72 3.72 -3.72 3.72c0.25,-2.45 0.25,-4.99 0,-7.44l0 0zm-73.61 3.72l3.47 -3.47 0 0.09c-0.17,2.28 -0.17,4.57 0,6.85l0 0.08 -3.47 -3.55zm35.03 35.11c2.37,0.26 4.74,0.17 7.02,0l0.25 0 -3.63 3.56 -3.64 -3.56zm0.08 -70.14l3.56 -3.63 3.63 3.63c-2.36,-0.25 -4.82,-0.25 -7.19,0l0 0z"/>
 </g>
</svg>
